<svg xmlns="http://www.w3.org/2000/svg" viewBox="0 0 45 45"><defs><style>.a{fill:#fff;}</style></defs><title>see-more-button</title><path class="a" d="M661.18,392.95a22.49,22.49,0,0,0-28.74-13.63.92.92,0,0,0,.61,1.72,20.66,20.66,0,1,1-10.8,8.86.92.92,0,1,0-1.57-.94,22.49,22.49,0,1,0,40.49,4Zm-20.27,16.7V386.86a.92.92,0,1,0-1.83,0v22.79a.92.92,0,1,0,1.83,0Zm-1.56,5.14a.91.91,0,0,0,1.29,0l10.22-10.22a.92.92,0,1,0-1.29-1.29L640,412.85l-9.57-9.57a.92.92,0,0,0-1.29,1.29Z" transform="translate(-617.5 -378)"/></svg>